<svg width="16" height="20" viewBox="0 0 16 20" fill="none" xmlns="http://www.w3.org/2000/svg">
<path d="M15.1423 0H0.85662C0.46153 0 0.142334 0.319196 0.142334 0.714286V19.2857C0.142334 19.6808 0.46153 20 0.85662 20H15.1423C15.5374 20 15.8566 19.6808 15.8566 19.2857V0.714286C15.8566 0.319196 15.5374 0 15.1423 0ZM9.33876 1.60714H11.4816V6.29241L10.4437 5.53571L9.33876 6.32589V1.60714ZM14.2495 18.3929H1.74948V1.60714H7.99948V8.23438C7.99948 8.30804 8.0218 8.3817 8.06644 8.44197C8.09354 8.48027 8.12797 8.51283 8.16773 8.53774C8.20749 8.56266 8.2518 8.57944 8.29809 8.58712C8.34438 8.5948 8.39174 8.59323 8.43742 8.58249C8.4831 8.57175 8.52619 8.55206 8.56421 8.52455L10.4347 7.1875L12.2517 8.51339C12.312 8.55804 12.3856 8.58259 12.4615 8.58259C12.658 8.58259 12.8187 8.42188 12.8187 8.22545V1.60714H14.2472V18.3929H14.2495Z" fill="black" fill-opacity="0.85"/>
</svg>
