<svg width="17" height="16" viewBox="0 0 17 16" fill="none" xmlns="http://www.w3.org/2000/svg">
<path d="M6.03544 2.14123H5.89258C5.97115 2.14123 6.03544 2.07694 6.03544 1.99837V2.14123H11.464V1.99837C11.464 2.07694 11.5283 2.14123 11.6069 2.14123H11.464V3.42694H12.7497V1.99837C12.7497 1.36801 12.2372 0.855515 11.6069 0.855515H5.89258C5.26222 0.855515 4.74972 1.36801 4.74972 1.99837V3.42694H6.03544V2.14123ZM15.0354 3.42694H2.46401C2.14794 3.42694 1.89258 3.6823 1.89258 3.99837V4.5698C1.89258 4.64837 1.95686 4.71266 2.03544 4.71266H3.11401L3.55508 14.0519C3.58365 14.6609 4.08722 15.1412 4.69615 15.1412H12.8033C13.414 15.1412 13.9158 14.6627 13.9444 14.0519L14.3854 4.71266H15.464C15.5426 4.71266 15.6069 4.64837 15.6069 4.5698V3.99837C15.6069 3.6823 15.3515 3.42694 15.0354 3.42694ZM12.6658 13.8555H4.83365L4.40151 4.71266H13.0979L12.6658 13.8555Z" fill="black" fill-opacity="0.45"/>
</svg>
