<svg width="15" height="16" viewBox="0 0 15 16" fill="none" xmlns="http://www.w3.org/2000/svg">
<path d="M2.70872 12.2841C2.74443 12.2841 2.78015 12.2805 2.81586 12.2752L5.81943 11.7484C5.85515 11.7412 5.88908 11.7252 5.91408 11.6984L13.4837 4.12873C13.5003 4.11221 13.5134 4.09259 13.5224 4.07098C13.5313 4.04938 13.5359 4.02622 13.5359 4.00284C13.5359 3.97945 13.5313 3.95629 13.5224 3.93469C13.5134 3.91309 13.5003 3.89346 13.4837 3.87694L10.5159 0.9073C10.4819 0.873372 10.4373 0.855515 10.3891 0.855515C10.3409 0.855515 10.2962 0.873372 10.2623 0.9073L2.69265 8.47694C2.66586 8.50373 2.64979 8.53587 2.64265 8.57159L2.11586 11.5752C2.09849 11.6708 2.1047 11.7693 2.13395 11.862C2.16319 11.9547 2.2146 12.0389 2.28372 12.1073C2.40158 12.2216 2.54979 12.2841 2.70872 12.2841ZM3.91229 9.1698L10.3891 2.6948L11.698 4.00373L5.22122 10.4787L3.63372 10.7591L3.91229 9.1698ZM13.8212 13.7841H0.678362C0.362291 13.7841 0.106934 14.0394 0.106934 14.3555V14.9984C0.106934 15.0769 0.171219 15.1412 0.249791 15.1412H14.2498C14.3284 15.1412 14.3926 15.0769 14.3926 14.9984V14.3555C14.3926 14.0394 14.1373 13.7841 13.8212 13.7841Z" fill="black" fill-opacity="0.45"/>
</svg>
