<svg width="19" height="23" viewBox="0 0 19 23" fill="none" xmlns="http://www.w3.org/2000/svg">
<path d="M17.3036 18.0683H16.6875V9.3406C16.6875 5.71862 14.0102 2.72554 10.5268 2.22754V1.229C10.5268 0.661696 10.0673 0.202209 9.5 0.202209C8.9327 0.202209 8.47322 0.661696 8.47322 1.229V2.22754C4.98984 2.72554 2.3125 5.71862 2.3125 9.3406V18.0683H1.69643C1.24208 18.0683 0.875 18.4354 0.875 18.8897V19.7111C0.875 19.8241 0.967411 19.9165 1.08036 19.9165H6.625C6.625 21.5029 7.91362 22.7915 9.5 22.7915C11.0864 22.7915 12.375 21.5029 12.375 19.9165H17.9196C18.0326 19.9165 18.125 19.8241 18.125 19.7111V18.8897C18.125 18.4354 17.7579 18.0683 17.3036 18.0683ZM9.5 21.1486C8.81976 21.1486 8.26786 20.5967 8.26786 19.9165H10.7321C10.7321 20.5967 10.1802 21.1486 9.5 21.1486ZM4.16071 18.0683V9.3406C4.16071 7.91337 4.71518 6.57342 5.724 5.5646C6.73281 4.55578 8.07277 4.00132 9.5 4.00132C10.9272 4.00132 12.2672 4.55578 13.276 5.5646C14.2848 6.57342 14.8393 7.91337 14.8393 9.3406V18.0683H4.16071Z" fill="black" fill-opacity="0.85"/>
</svg>
