<svg width="40" height="40" viewBox="0 0 40 40" fill="none" xmlns="http://www.w3.org/2000/svg">
<path d="M27.734 25.6135C27.3129 24.6161 26.7019 23.7102 25.9349 22.9461C25.1702 22.1798 24.2644 21.5689 23.2675 21.147C23.2585 21.1425 23.2496 21.1403 23.2407 21.1358C24.6313 20.1314 25.5353 18.4952 25.5353 16.6492C25.5353 13.5912 23.0576 11.1135 19.9996 11.1135C16.9416 11.1135 14.4639 13.5912 14.4639 16.6492C14.4639 18.4952 15.3679 20.1314 16.7585 21.1381C16.7496 21.1425 16.7407 21.1447 16.7317 21.1492C15.7317 21.5711 14.8344 22.176 14.0643 22.9483C13.2981 23.713 12.6871 24.6188 12.2652 25.6157C11.8508 26.5917 11.6272 27.6382 11.6067 28.6983C11.6061 28.7221 11.6103 28.7458 11.619 28.768C11.6277 28.7902 11.6408 28.8104 11.6574 28.8275C11.6741 28.8445 11.694 28.8581 11.7159 28.8673C11.7379 28.8766 11.7615 28.8814 11.7853 28.8814H13.1246C13.2228 28.8814 13.3009 28.8032 13.3032 28.7072C13.3478 26.984 14.0398 25.3702 15.263 24.147C16.5286 22.8814 18.2094 22.1849 19.9996 22.1849C21.7898 22.1849 23.4706 22.8814 24.7362 24.147C25.9594 25.3702 26.6514 26.984 26.696 28.7072C26.6983 28.8055 26.7764 28.8814 26.8746 28.8814H28.2139C28.2377 28.8814 28.2613 28.8766 28.2833 28.8673C28.3052 28.8581 28.3251 28.8445 28.3418 28.8275C28.3584 28.8104 28.3715 28.7902 28.3802 28.768C28.3889 28.7458 28.3931 28.7221 28.3925 28.6983C28.3701 27.6314 28.1492 26.5934 27.734 25.6135ZM19.9996 20.4885C18.975 20.4885 18.0108 20.0889 17.2853 19.3635C16.5599 18.6381 16.1603 17.6738 16.1603 16.6492C16.1603 15.6247 16.5599 14.6604 17.2853 13.9349C18.0108 13.2095 18.975 12.8099 19.9996 12.8099C21.0242 12.8099 21.9884 13.2095 22.7139 13.9349C23.4393 14.6604 23.8389 15.6247 23.8389 16.6492C23.8389 17.6738 23.4393 18.6381 22.7139 19.3635C21.9884 20.0889 21.0242 20.4885 19.9996 20.4885Z" fill="white"/>
</svg>
